{
    "asset": {
        "version": "2.0",
        "generator": "Open Asset Import Library (assimp v5.2.cf7d3637)"
    },
    "extensionsUsed": [
        "KHR_materials_volume",
        "FB_ngon_encoding"
    ],
    "accessors": [
        {
            "bufferView": 0,
            "byteOffset": 0,
            "componentType": 5126,
            "count": 120000,
            "type": "VEC3",
            "max": [
                0.9901360273361206,
                0.9778649806976318,
                0.7796369791030884
            ],
            "min": [
                -0.9979040026664734,
                -0.9969499707221985,
                -0.8013709783554077
            ]
        },
        {
            "bufferView": 1,
            "byteOffset": 0,
            "componentType": 5126,
            "count": 120000,
            "type": "VEC3",
            "max": [
                0.9999379515647888,
                0.999960720539093,
                0.9999805092811585
            ],
            "min": [
                -0.9998922348022461,
                -0.999987781047821,
                -0.999993622303009
            ]
        },
        {
            "bufferView": 2,
            "byteOffset": 0,
            "componentType": 5126,
            "count": 120000,
            "type": "VEC2",
            "max": [
                0.9995689988136292,
                1.0
            ],
            "min": [
                0.0,
                0.00040799379348754883
            ]
        },
        {
            "bufferView": 3,
            "byteOffset": 0,
            "componentType": 5125,
            "count": 120000,
            "type": "SCALAR",
            "max": [
                119999
            ],
            "min": [
                0
            ]
        }
    ],
    "buffers": [
        {
            "byteLength": 4320000,
            "uri": "result.bin"
        }
    ],
    "bufferViews": [
        {
            "buffer": 0,
            "byteOffset": 0,
            "byteLength": 1440000,
            "target": 34962
        },
        {
            "buffer": 0,
            "byteOffset": 1440000,
            "byteLength": 1440000,
            "target": 34962
        },
        {
            "buffer": 0,
            "byteOffset": 2880000,
            "byteLength": 960000,
            "target": 34962
        },
        {
            "buffer": 0,
            "byteOffset": 3840000,
            "byteLength": 480000,
            "target": 34963
        }
    ],
    "images": [
        {
            "uri": "data:image/jpeg;base64,"
        },
        {
            "uri": "data:image/png;base64,"
        }
    ],
    "materials": [
        {
            "name": "PBR_Material",
            "pbrMetallicRoughness": {
                "baseColorTexture": {
                    "index": 0
                },
                "metallicRoughnessTexture": {
                    "index": 1
                }
            }
        },
        {
            "name": "material"
        }
    ],
    "meshes": [
        {
            "name": "textured_mesh.obj",
            "primitives": [
                {
                    "mode": 4,
                    "material": 0,
                    "indices": 3,
                    "attributes": {
                        "POSITION": 0,
                        "NORMAL": 1,
                        "TEXCOORD_0": 2
                    }
                }
            ]
        }
    ],
    "nodes": [
        {
            "name": "world",
            "children": [
                1
            ]
        },
        {
            "name": "textured_mesh.obj",
            "mesh": 0
        }
    ],
    "samplers": [
        {},
        {}
    ],
    "scenes": [
        {
            "nodes": [
                0
            ]
        }
    ],
    "textures": [
        {
            "source": 0,
            "sampler": 0
        },
        {
            "source": 1,
            "sampler": 1
        }
    ],
    "scene": 0
}